Coordinates
version=1
nRows=9
nColumns=26
inDegrees=yes

Units are S.I. units (second, meters, Newtons, ...)
Angles are in degrees.

endheader
time	pelvis_tilt	pelvis_list	pelvis_rotation	pelvis_tx	pelvis_ty	pelvis_tz	hip_flexion_r	hip_adduction_r	hip_rotation_r	knee_angle_r	knee_angle_r_beta	ankle_angle_r	subtalar_angle_r	mtp_angle_r	hip_flexion_l	hip_adduction_l	hip_rotation_l	knee_angle_l	knee_angle_l_beta	ankle_angle_l	subtalar_angle_l	mtp_angle_l	lumbar_extension	lumbar_bending	lumbar_rotation
      0.27500000	      6.55736130	     -0.83196870	     -2.45327079	      0.35932528	      1.01695978	      0.16391128	      9.09796424	     -3.19172883	     -1.00118438	     59.76584062	     59.76584062	      3.13335145	      0.00000000	      0.00000000	      1.73737519	      0.32521684	     -9.05566503	     14.38270691	     14.38270691	      5.92989738	      0.00000000	      0.00000000	    -19.83358634	     -0.63081486	      3.58423906
      0.28333333	      6.72013929	     -1.04177830	     -2.15384284	      0.36803159	      1.01810015	      0.16335546	      9.57715933	     -2.81579974	     -1.04831975	     58.67922678	     58.67922678	      3.75675480	      0.00000000	      0.00000000	      0.70334227	      0.21752985	     -8.79700952	     13.78774666	     13.78774666	      6.17789734	      0.00000000	      0.00000000	    -19.98955938	     -0.30927003	      3.41882647
      0.29166667	      6.83658916	     -1.20748521	     -1.88921759	      0.37653714	      1.01909883	      0.16271806	     10.09345785	     -2.48524570	     -1.06395962	     57.49001910	     57.49001910	      4.34279455	      0.00000000	      0.00000000	     -0.28672422	      0.14718995	     -8.60478524	     13.15313091	     13.15313091	      6.33954858	      0.00000000	      0.00000000	    -20.12049642	     -0.04182835	      3.28414657
      0.30000000	      6.90956410	     -1.34248119	     -1.71007012	      0.38486809	      1.01991624	      0.16222510	     10.68644145	     -2.15826462	     -0.97257324	     56.19767203	     56.19767203	      4.77518909	      0.00000000	      0.00000000	     -1.20025707	      0.08935188	     -8.40613770	     12.59089409	     12.59089409	      6.51891426	      0.00000000	      0.00000000	    -20.21969047	      0.16755109	      3.19171757
      0.30833333	      7.04458705	     -1.50683355	     -1.32090856	      0.39346265	      1.02085752	      0.16187745	     10.91676378	     -1.73806153	     -0.93649856	     54.52272153	     54.52272153	      5.43589081	      0.00000000	      0.00000000	     -2.16077833	     -0.04892225	     -8.05485214	     12.04821657	     12.04821657	      6.68320803	      0.00000000	      0.00000000	    -20.36450443	      0.41346250	      2.94819128
      0.31666667	      7.16517705	     -1.61114771	     -0.91530481	      0.40202234	      1.02159429	      0.16154424	     11.31847292	     -1.52830308	     -1.06757911	     52.86689080	     52.86689080	      5.65974971	      0.00000000	      0.00000000	     -3.11198205	     -0.13011409	     -7.67232392	     11.48283548	     11.48283548	      6.69669117	      0.00000000	      0.00000000	    -20.48603239	      0.59351887	      2.61688111
      0.32500000	      7.27938479	     -1.70818474	     -0.63822000	      0.41059074	      1.02224729	      0.16113489	     11.68221828	     -1.33439146	     -1.17218221	     51.13217529	     51.13217529	      5.87672996	      0.00000000	      0.00000000	     -4.08115150	     -0.18425658	     -7.41150431	     10.88369497	     10.88369497	      6.73660821	      0.00000000	      0.00000000	    -20.60629482	      0.75441488	      2.43021060
      0.33333333	      7.29797159	     -1.74672519	     -0.37716263	      0.41891905	      1.02261456	      0.16076101	     12.09352372	     -1.14940757	     -1.15491199	     49.21166121	     49.21166121	      5.95758127	      0.00000000	      0.00000000	     -4.86072165	     -0.20071180	     -7.19668737	     10.42617476	     10.42617476	      6.88752909	      0.00000000	      0.00000000	    -20.65566261	      0.85446754	      2.20960397
      0.34166667	      7.33212141	     -1.81953919	     -0.15262248	      0.42717402	      1.02289450	      0.16040081	     12.44394942	     -0.94583156	     -1.11184692	     47.16789724	     47.16789724	      5.99862141	      0.00000000	      0.00000000	     -5.65415067	     -0.25952193	     -6.99843743	      9.97948943	      9.97948943	      7.02067985	      0.00000000	      0.00000000	    -20.72289306	      0.97996042	      2.02599227
